{
    "asset" : {
        "generator" : "Khronos glTF Blender I/O v1.5.17",
        "version" : "2.0"
    },
    "scene" : 0,
    "scenes" : [
        {
            "name" : "Scene",
            "nodes" : [
                0,
                1,
                2
            ]
        },
        {
            "name" : "Scene.001",
            "nodes" : [
                3,
                4,
                5
            ]
        },
        {
            "name" : "Scene.002",
            "nodes" : [
                6,
                7,
                8
            ]
        },
        {
            "name" : "Scene.003",
            "nodes" : [
                9,
                10,
                11
            ]
        },
        {
            "name" : "Scene.004",
            "nodes" : [
                12,
                13,
                14
            ]
        },
        {
            "name" : "Scene.005",
            "nodes" : [
                15,
                16,
                17
            ]
        },
        {
            "name" : "Scene.006",
            "nodes" : [
                18,
                19,
                20
            ]
        },
        {
            "name" : "Scene.007",
            "nodes" : [
                21,
                22,
                23
            ]
        },
        {
            "name" : "Scene.008",
            "nodes" : [
                24,
                25,
                26
            ]
        },
        {
            "name" : "Scene.009",
            "nodes" : [
                27,
                28,
                29
            ]
        },
        {
            "name" : "Scene.010",
            "nodes" : [
                30,
                31,
                32
            ]
        },
        {
            "name" : "Scene.011",
            "nodes" : [
                33,
                34,
                35
            ]
        }
    ],
    "nodes" : [
        {
            "name" : "Light",
            "rotation" : [
                0.16907575726509094,
                0.7558803558349609,
                -0.27217137813568115,
                0.570947527885437
            ],
            "translation" : [
                4.831101417541504,
                1.1994538307189941,
                -2.7371389865875244
            ]
        },
        {
            "name" : "Camera",
            "rotation" : [
                0.10832943022251129,
                0.8778408169746399,
                -0.40218302607536316,
                0.23645097017288208
            ],
            "translation" : [
                4.402798652648926,
                3.5279197692871094,
                -4.639272212982178
            ]
        },
        {
            "mesh" : 0,
            "name" : "Cylinder",
            "scale" : [
                0.3253057599067688,
                0.3253057599067688,
                0.3253057599067688
            ],
            "translation" : [
                2.0868115425109863,
                0.33786386251449585,
                -1.19614577293396
            ]
        },
        {
            "name" : "Light",
            "rotation" : [
                0.16907575726509094,
                0.7558803558349609,
                -0.27217137813568115,
                0.570947527885437
            ],
            "translation" : [
                4.831101417541504,
                1.1994538307189941,
                -2.7371389865875244
            ]
        },
        {
            "name" : "Camera",
            "rotation" : [
                0.10832943022251129,
                0.8778408169746399,
                -0.40218302607536316,
                0.23645097017288208
            ],
            "translation" : [
                4.402798652648926,
                3.5279197692871094,
                -4.639272212982178
            ]
        },
        {
            "mesh" : 0,
            "name" : "Cylinder",
            "scale" : [
                0.3253057599067688,
                0.3253057599067688,
                0.3253057599067688
            ],
            "translation" : [
                2.0868115425109863,
                0.33786386251449585,
                -1.19614577293396
            ]
        },
        {
            "name" : "Light",
            "rotation" : [
                0.16907575726509094,
                0.7558803558349609,
                -0.27217137813568115,
                0.570947527885437
            ],
            "translation" : [
                4.831101417541504,
                1.1994538307189941,
                -2.7371389865875244
            ]
        },
        {
            "name" : "Camera",
            "rotation" : [
                0.10832943022251129,
                0.8778408169746399,
                -0.40218302607536316,
                0.23645097017288208
            ],
            "translation" : [
                4.402798652648926,
                3.5279197692871094,
                -4.639272212982178
            ]
        },
        {
            "mesh" : 0,
            "name" : "Cylinder",
            "scale" : [
                0.3253057599067688,
                0.3253057599067688,
                0.3253057599067688
            ],
            "translation" : [
                2.0868115425109863,
                0.33786386251449585,
                -1.19614577293396
            ]
        },
        {
            "name" : "Light",
            "rotation" : [
                0.16907575726509094,
                0.7558803558349609,
                -0.27217137813568115,
                0.570947527885437
            ],
            "translation" : [
                4.831101417541504,
                1.1994538307189941,
                -2.7371389865875244
            ]
        },
        {
            "name" : "Camera",
            "rotation" : [
                0.10832943022251129,
                0.8778408169746399,
                -0.40218302607536316,
                0.23645097017288208
            ],
            "translation" : [
                4.402798652648926,
                3.5279197692871094,
                -4.639272212982178
            ]
        },
        {
            "mesh" : 0,
            "name" : "Cylinder",
            "scale" : [
                0.3253057599067688,
                0.3253057599067688,
                0.3253057599067688
            ],
            "translation" : [
                2.0868115425109863,
                0.33786386251449585,
                -1.19614577293396
            ]
        },
        {
            "name" : "Light",
            "rotation" : [
                0.16907575726509094,
                0.7558803558349609,
                -0.27217137813568115,
                0.570947527885437
            ],
            "translation" : [
                4.831101417541504,
                1.1994538307189941,
                -2.7371389865875244
            ]
        },
        {
            "name" : "Camera",
            "rotation" : [
                0.10832943022251129,
                0.8778408169746399,
                -0.40218302607536316,
                0.23645097017288208
            ],
            "translation" : [
                4.402798652648926,
                3.5279197692871094,
                -4.639272212982178
            ]
        },
        {
            "mesh" : 0,
            "name" : "Cylinder",
            "scale" : [
                0.3253057599067688,
                0.3253057599067688,
                0.3253057599067688
            ],
            "translation" : [
                2.0868115425109863,
                0.33786386251449585,
                -1.19614577293396
            ]
        },
        {
            "name" : "Light",
            "rotation" : [
                0.16907575726509094,
                0.7558803558349609,
                -0.27217137813568115,
                0.570947527885437
            ],
            "translation" : [
                4.831101417541504,
                1.1994538307189941,
                -2.7371389865875244
            ]
        },
        {
            "name" : "Camera",
            "rotation" : [
                0.10832943022251129,
                0.8778408169746399,
                -0.40218302607536316,
                0.23645097017288208
            ],
            "translation" : [
                4.402798652648926,
                3.5279197692871094,
                -4.639272212982178
            ]
        },
        {
            "mesh" : 0,
            "name" : "Cylinder",
            "scale" : [
                0.3253057599067688,
                0.3253057599067688,
                0.3253057599067688
            ],
            "translation" : [
                2.0868115425109863,
                0.33786386251449585,
                -1.19614577293396
            ]
        },
        {
            "name" : "Light",
            "rotation" : [
                0.16907575726509094,
                0.7558803558349609,
                -0.27217137813568115,
                0.570947527885437
            ],
            "translation" : [
                4.831101417541504,
                1.1994538307189941,
                -2.7371389865875244
            ]
        },
        {
            "name" : "Camera",
            "rotation" : [
                0.10832943022251129,
                0.8778408169746399,
                -0.40218302607536316,
                0.23645097017288208
            ],
            "translation" : [
                4.402798652648926,
                3.5279197692871094,
                -4.639272212982178
            ]
        },
        {
            "mesh" : 0,
            "name" : "Cylinder",
            "scale" : [
                0.3253057599067688,
                0.3253057599067688,
                0.3253057599067688
            ],
            "translation" : [
                2.0868115425109863,
                0.33786386251449585,
                -1.19614577293396
            ]
        },
        {
            "name" : "Light",
            "rotation" : [
                0.16907575726509094,
                0.7558803558349609,
                -0.27217137813568115,
                0.570947527885437
            ],
            "translation" : [
                4.831101417541504,
                1.1994538307189941,
                -2.7371389865875244
            ]
        },
        {
            "name" : "Camera",
            "rotation" : [
                0.10832943022251129,
                0.8778408169746399,
                -0.40218302607536316,
                0.23645097017288208
            ],
            "translation" : [
                4.402798652648926,
                3.5279197692871094,
                -4.639272212982178
            ]
        },
        {
            "mesh" : 0,
            "name" : "Cylinder",
            "scale" : [
                0.3253057599067688,
                0.3253057599067688,
                0.3253057599067688
            ],
            "translation" : [
                2.0868115425109863,
                0.33786386251449585,
                -1.19614577293396
            ]
        },
        {
            "name" : "Light",
            "rotation" : [
                0.16907575726509094,
                0.7558803558349609,
                -0.27217137813568115,
                0.570947527885437
            ],
            "translation" : [
                4.831101417541504,
                1.1994538307189941,
                -2.7371389865875244
            ]
        },
        {
            "name" : "Camera",
            "rotation" : [
                0.10832943022251129,
                0.8778408169746399,
                -0.40218302607536316,
                0.23645097017288208
            ],
            "translation" : [
                4.402798652648926,
                3.5279197692871094,
                -4.639272212982178
            ]
        },
        {
            "mesh" : 0,
            "name" : "Cylinder",
            "scale" : [
                0.3253057599067688,
                0.3253057599067688,
                0.3253057599067688
            ],
            "translation" : [
                2.0868115425109863,
                0.33786386251449585,
                -1.19614577293396
            ]
        },
        {
            "name" : "Light",
            "rotation" : [
                0.16907575726509094,
                0.7558803558349609,
                -0.27217137813568115,
                0.570947527885437
            ],
            "translation" : [
                4.831101417541504,
                1.1994538307189941,
                -2.7371389865875244
            ]
        },
        {
            "name" : "Camera",
            "rotation" : [
                0.10832943022251129,
                0.8778408169746399,
                -0.40218302607536316,
                0.23645097017288208
            ],
            "translation" : [
                4.402798652648926,
                3.5279197692871094,
                -4.639272212982178
            ]
        },
        {
            "mesh" : 0,
            "name" : "Cylinder",
            "scale" : [
                0.3253057599067688,
                0.3253057599067688,
                0.3253057599067688
            ],
            "translation" : [
                2.0868115425109863,
                0.33786386251449585,
                -1.19614577293396
            ]
        },
        {
            "name" : "Light",
            "rotation" : [
                0.16907575726509094,
                0.7558803558349609,
                -0.27217137813568115,
                0.570947527885437
            ],
            "translation" : [
                4.831101417541504,
                1.1994538307189941,
                -2.7371389865875244
            ]
        },
        {
            "name" : "Camera",
            "rotation" : [
                0.10832943022251129,
                0.8778408169746399,
                -0.40218302607536316,
                0.23645097017288208
            ],
            "translation" : [
                4.402798652648926,
                3.5279197692871094,
                -4.639272212982178
            ]
        },
        {
            "mesh" : 0,
            "name" : "Cylinder",
            "scale" : [
                0.3253057599067688,
                0.3253057599067688,
                0.3253057599067688
            ],
            "translation" : [
                2.0868115425109863,
                0.33786386251449585,
                -1.19614577293396
            ]
        },
        {
            "name" : "Light",
            "rotation" : [
                0.16907575726509094,
                0.7558803558349609,
                -0.27217137813568115,
                0.570947527885437
            ],
            "translation" : [
                4.831101417541504,
                1.1994538307189941,
                -2.7371389865875244
            ]
        },
        {
            "name" : "Camera",
            "rotation" : [
                0.10832943022251129,
                0.8778408169746399,
                -0.40218302607536316,
                0.23645097017288208
            ],
            "translation" : [
                4.402798652648926,
                3.5279197692871094,
                -4.639272212982178
            ]
        },
        {
            "mesh" : 0,
            "name" : "Cylinder",
            "scale" : [
                0.3253057599067688,
                0.3253057599067688,
                0.3253057599067688
            ],
            "translation" : [
                2.0868115425109863,
                0.33786386251449585,
                -1.19614577293396
            ]
        }
    ],
    "materials" : [
        {
            "doubleSided" : true,
            "name" : "Material.001",
            "pbrMetallicRoughness" : {
                "baseColorFactor" : [
                    0.8000000715255737,
                    0.2862836718559265,
                    0.09079191088676453,
                    1
                ],
                "metallicFactor" : 0,
                "roughnessFactor" : 0.13076922297477722
            }
        }
    ],
    "meshes" : [
        {
            "name" : "Cylinder.001",
            "primitives" : [
                {
                    "attributes" : {
                        "POSITION" : 0,
                        "NORMAL" : 1,
                        "TEXCOORD_0" : 2
                    },
                    "indices" : 3,
                    "material" : 0
                }
            ]
        }
    ],
    "accessors" : [
        {
            "bufferView" : 0,
            "componentType" : 5126,
            "count" : 19102,
            "max" : [
                2.1637284755706787,
                1.0165294408798218,
                0.5587297677993774
            ],
            "min" : [
                -1.0303351879119873,
                -1.027003288269043,
                -1.5019408464431763
            ],
            "type" : "VEC3"
        },
        {
            "bufferView" : 1,
            "componentType" : 5126,
            "count" : 19102,
            "type" : "VEC3"
        },
        {
            "bufferView" : 2,
            "componentType" : 5126,
            "count" : 19102,
            "type" : "VEC2"
        },
        {
            "bufferView" : 3,
            "componentType" : 5123,
            "count" : 100992,
            "type" : "SCALAR"
        }
    ],
    "bufferViews" : [
        {
            "buffer" : 0,
            "byteLength" : 229224,
            "byteOffset" : 0
        },
        {
            "buffer" : 0,
            "byteLength" : 229224,
            "byteOffset" : 229224
        },
        {
            "buffer" : 0,
            "byteLength" : 152816,
            "byteOffset" : 458448
        },
        {
            "buffer" : 0,
            "byteLength" : 201984,
            "byteOffset" : 611264
        }
    ],
    "buffers" : [
        {
            "byteLength" : 813248,
            "uri" : "data:application/octet-stream;base64,"
        }
    ]
}
